# xmcd
#
# Track frame offsets: 
#        150
#        20412
#        41957
#        67765
#        89492
#        102528
#        118751
#        134383
#        147682
#        163966
#        179826
#        199234
#        216307
#        230301
#        245395
#
# Disc length: 3482 seconds
#
# Revision: 0
# Processed by: cddbd v1.5.2PL0 Copyright (c) Steve Scherf et al.
# Submitted via: ExactAudioCopy v0.95a5
#
DISCID=ed0d980f
DTITLE=The Timebombs - Kaboom
DYEAR=1900
DGENRE=Blues
TTITLE0=Downtown
TTITLE1=Sunshine Baby
TTITLE2=Blowin Off Steam
TTITLE3=Never Gonna Change
TTITLE4=So Hot
TTITLE5=Hate to Tell Ya
TTITLE6=Slip Away
TTITLE7=Poodle Dog Lounge
TTITLE8=Got What You Need
TTITLE9=Push Comes to Shove
TTITLE10=Everyday American Life
TTITLE11=Cheatin
TTITLE12=Penny For Your Thoughts
TTITLE13=Treats Me Right
TTITLE14=Kama Sutra Sue
EXTD=
EXTT0=
EXTT1=
EXTT2=
EXTT3=
EXTT4=
EXTT5=
EXTT6=
EXTT7=
EXTT8=
EXTT9=
EXTT10=
EXTT11=
EXTT12=
EXTT13=
EXTT14=
PLAYORDER=
